<svg width="62" height="60" viewBox="0 0 62 60" fill="none" xmlns="http://www.w3.org/2000/svg">
<path d="M4.63866 59.9759C3.07563 59.9759 1.89076 59.6141 1.13445 58.8666C0.378151 58.119 0 57.0096 0 55.5386V4.4373C0 2.96624 0.378151 1.8328 1.13445 1.10932C1.89076 0.361736 3.07563 0 4.63866 0H13.3866C14.9244 0 16.084 0.361736 16.8655 1.08521C17.6218 1.80868 18 2.91801 18 4.46141V55.5627C18 57.0579 17.6218 58.1672 16.8655 58.8907C16.1092 59.6383 14.9496 60 13.3866 60H4.63866V59.9759Z" fill="#431C19"/>
<path d="M26.6387 59.9759C25.0756 59.9759 23.8908 59.6141 23.1345 58.8666C22.3782 58.119 22 57.0096 22 55.5386V4.4373C22 2.96624 22.3782 1.8328 23.1345 1.10932C23.8908 0.361736 25.0756 0 26.6387 0H35.3866C36.9244 0 38.084 0.361736 38.8655 1.08521C39.6218 1.80868 40 2.91801 40 4.46141V55.5627C40 57.0579 39.6218 58.1672 38.8655 58.8907C38.1092 59.6383 36.9496 60 35.3866 60H26.6387V59.9759Z" fill="#431C19"/>
<path d="M48.6387 59.9759C47.0756 59.9759 45.8908 59.6141 45.1345 58.8666C44.3782 58.119 44 57.0096 44 55.5386V4.4373C44 2.96624 44.3782 1.8328 45.1345 1.10932C45.8908 0.361736 47.0756 0 48.6387 0H57.3866C58.9244 0 60.084 0.361736 60.8655 1.08521C61.6218 1.80868 62 2.91801 62 4.46141V55.5627C62 57.0579 61.6218 58.1672 60.8655 58.8907C60.1092 59.6383 58.9496 60 57.3866 60H48.6387V59.9759Z" fill="#431C19"/>
</svg>
