<svg width="94" height="60" viewBox="0 0 94 60" fill="none" xmlns="http://www.w3.org/2000/svg">
<g clip-path="url(#clip0_1594_11602)">
<path d="M7.0832 60C2.36107 60 0 58.379 0 55.1579C0 53.0105 0.65351 50.7368 1.96053 48.3368C3.26755 45.9368 5.14375 43.6842 7.61023 41.5579C10.0767 39.4526 13.0491 37.7053 16.5275 36.379C20.0269 35.0526 23.9691 34.3789 28.375 34.3789C32.7809 34.3789 36.7019 35.0526 40.2014 36.379C43.7008 37.7263 46.6732 39.4526 49.1186 41.5579C51.5851 43.6842 53.4613 45.9368 54.7683 48.3368C56.0753 50.7368 56.7289 53.0105 56.7289 55.1579C56.7289 58.379 54.3678 60 49.6035 60H7.0832ZM6.0924 56.1895H50.6997C51.4375 56.1895 51.9646 56.0842 52.2597 55.8737C52.5548 55.6632 52.7024 55.3053 52.7024 54.779C52.7024 53.2 52.1543 51.4737 51.0792 49.5789C50.004 47.6842 48.423 45.8947 46.357 44.1474C44.2911 42.4211 41.7403 40.9895 38.7257 39.8947C35.7111 38.779 32.2539 38.2316 28.3961 38.2316C24.5382 38.2316 21.0599 38.779 18.0453 39.8947C15.0307 41.0105 12.4799 42.4211 10.414 44.1474C8.34806 45.8737 6.76699 47.6842 5.69186 49.5789C4.61673 51.4737 4.06862 53.2 4.06862 54.779C4.06862 55.3053 4.21619 55.6632 4.51133 55.8737C4.80646 56.0842 5.33348 56.1895 6.11348 56.1895H6.0924ZM28.3961 29.8737C25.8242 29.8737 23.5053 29.2 21.4183 27.8526C19.3312 26.5053 17.6658 24.6947 16.4221 22.4C15.1783 20.1263 14.5669 17.5789 14.5669 14.8C14.5459 12.0842 15.1572 9.6 16.4221 7.36842C17.6869 5.13684 19.3523 3.34737 21.4393 2C23.5264 0.673684 25.8663 0 28.3961 0C30.9258 0 33.2658 0.652632 35.3528 1.97895C37.4398 3.28421 39.1263 5.07368 40.37 7.30526C41.6138 9.53684 42.2252 12.0211 42.2252 14.7368C42.2252 17.4526 41.6138 20.0842 40.37 22.3789C39.1263 24.6737 37.4609 26.4842 35.3528 27.8316C33.2447 29.1789 30.9258 29.8526 28.3961 29.8526V29.8737ZM28.3961 26.0632C30.1669 26.0632 31.8112 25.5579 33.2868 24.5474C34.7625 23.5368 35.9641 22.1895 36.8495 20.4632C37.7349 18.7368 38.1776 16.8421 38.1776 14.7368C38.1776 12.6316 37.7349 10.8421 36.8495 9.2C35.9641 7.53684 34.7836 6.23158 33.2868 5.26316C31.8112 4.29474 30.1669 3.81053 28.3961 3.81053C26.6253 3.81053 24.9177 4.29474 23.442 5.28421C21.9664 6.25263 20.7858 7.57895 19.9004 9.24211C19.015 10.9053 18.5934 12.7579 18.6145 14.8C18.6145 16.9053 19.0572 18.8 19.9215 20.5053C20.8069 22.2105 21.9874 23.5579 23.4631 24.5474C24.9388 25.5368 26.5831 26.0421 28.3961 26.0421V26.0632ZM65.6039 34.3789C69.9888 34.3789 73.952 35.0526 77.4514 36.379C80.9509 37.7263 83.9444 39.4526 86.3898 41.5579C88.8562 43.6842 90.7324 45.9368 92.0395 48.3368C93.3465 50.7368 94 53.0105 94 55.1579C94 58.379 91.6178 60 86.8536 60H58.9634C59.364 59.4316 59.6591 58.8211 59.8278 58.1895C60.0175 57.5579 60.1229 56.8842 60.1651 56.1895H87.9076C88.6454 56.1895 89.1725 56.0842 89.4676 55.8737C89.7627 55.6632 89.9103 55.3053 89.9103 54.779C89.9103 53.2 89.3833 51.4737 88.3081 49.5789C87.233 47.6842 85.673 45.8947 83.586 44.1474C81.499 42.4211 78.9482 40.9895 75.9336 39.8947C72.919 38.779 69.4618 38.2316 65.6039 38.2316C63.285 38.2316 61.0926 38.4632 59.0899 38.9053C57.0662 39.3474 55.2321 39.9579 53.5667 40.7368C53.0819 40.2526 52.5759 39.7684 52.0489 39.3053C51.5219 38.8421 50.9738 38.4 50.4046 37.979C52.4916 36.8842 54.8105 36.0211 57.3613 35.3684C59.9121 34.7158 62.6737 34.4 65.6039 34.4V34.3789ZM65.6461 29.8737C63.0953 29.8737 60.7764 29.2 58.6894 27.8526C56.6024 26.5053 54.937 24.6947 53.6932 22.4C52.4494 20.1263 51.817 17.5789 51.7959 14.8C51.7959 12.0842 52.4283 9.6 53.6721 7.36842C54.9159 5.13684 56.6024 3.34737 58.6894 2C60.7764 0.673684 63.0953 0 65.625 0C68.1547 0 70.5158 0.652632 72.6028 1.97895C74.6898 3.28421 76.3552 5.07368 77.599 7.30526C78.8428 9.53684 79.4541 12.0211 79.4541 14.7368C79.4541 17.4526 78.8428 20.0842 77.599 22.3789C76.3552 24.6737 74.6898 26.4842 72.6028 27.8316C70.5158 29.1789 68.1969 29.8526 65.625 29.8526L65.6461 29.8737ZM65.6461 26.0632C67.438 26.0632 69.0823 25.5579 70.579 24.5474C72.0547 23.5368 73.2353 22.1895 74.1207 20.4632C75.0061 18.7579 75.4277 16.8421 75.4277 14.7368C75.4277 12.6316 74.985 10.8421 74.1207 9.2C73.2353 7.53684 72.0547 6.23158 70.579 5.26316C69.1034 4.29474 67.4591 3.81053 65.6461 3.81053C63.8331 3.81053 62.231 4.29474 60.7342 5.28421C59.2375 6.25263 58.057 7.57895 57.1716 9.24211C56.2862 10.9053 55.8645 12.7579 55.8645 14.8C55.8645 16.8421 56.3072 18.8 57.1926 20.5053C58.078 22.2105 59.2586 23.5579 60.7553 24.5474C62.231 25.5368 63.8753 26.0421 65.6461 26.0421V26.0632Z" fill="#431C19"/>
</g>
<defs>
<clipPath id="clip0_1594_11602">
<rect width="94" height="60" fill="white"/>
</clipPath>
</defs>
</svg>
