<svg width="60" height="60" viewBox="0 0 60 60" fill="none" xmlns="http://www.w3.org/2000/svg">
<path d="M30 60C25.8839 60 22.0357 59.2151 18.4174 57.6452C14.799 56.0753 11.6018 53.9119 8.84493 51.1551C6.08807 48.3982 3.9247 45.201 2.35482 41.5826C0.784939 37.9643 0 34.097 0 30C0 25.903 0.784939 22.0357 2.35482 18.4174C3.9247 14.799 6.08807 11.6018 8.82578 8.84493C11.5826 6.08807 14.7607 3.9247 18.3791 2.35482C21.9974 0.784939 25.8647 0 29.9617 0C34.0587 0 37.9451 0.784939 41.5635 2.35482C45.201 3.9247 48.3791 6.08807 51.1359 8.84493C53.8928 11.6018 56.0562 14.799 57.626 18.4174C59.1959 22.0357 59.9809 25.903 59.9809 30C59.9809 34.097 59.1959 37.9643 57.626 41.5826C56.0562 45.201 53.8928 48.3982 51.1359 51.1551C48.3791 53.9119 45.201 56.0753 41.5826 57.6452C37.9643 59.2151 34.097 60 30 60ZM30 56.1519C33.6184 56.1519 36.9879 55.4818 40.1468 54.1225C43.3057 52.7632 46.0817 50.887 48.4939 48.4939C50.887 46.1008 52.7632 43.3248 54.1225 40.1659C55.4627 37.007 56.1327 33.6184 56.1327 30.0191C56.1327 26.4199 55.4627 23.0313 54.1034 19.8724C52.7441 16.7135 50.8679 13.9375 48.4748 11.5252C46.0817 9.1321 43.3057 7.2559 40.1468 5.89662C36.9879 4.55648 33.5992 3.88641 29.9617 3.88641C26.3242 3.88641 22.9738 4.55648 19.8149 5.89662C16.656 7.23676 13.88 9.11295 11.5061 11.5252C9.11296 13.9375 7.2559 16.7135 5.91576 19.8724C4.57562 23.0313 3.90555 26.4199 3.90555 30.0191C3.90555 33.6184 4.57562 37.007 5.91576 40.1659C7.2559 43.3248 9.1321 46.1008 11.5252 48.4939C13.9183 50.887 16.6943 52.7632 19.8341 54.1225C22.993 55.4818 26.3816 56.1519 30 56.1519ZM13.7269 32.9292C13.2482 32.9292 12.8462 32.776 12.5399 32.4505C12.2336 32.1251 12.0804 31.7422 12.0804 31.2827C12.0804 30.8232 12.2336 30.4595 12.5399 30.1532C12.8462 29.8277 13.2482 29.6745 13.7269 29.6745H28.3535V10.3191C28.3535 9.8596 28.5067 9.47671 28.8322 9.17039C29.1576 8.86407 29.5214 8.71091 29.9617 8.71091C30.4403 8.71091 30.8424 8.86407 31.1487 9.17039C31.455 9.47671 31.6082 9.8596 31.6082 10.3191V31.2827C31.6082 31.7422 31.455 32.1251 31.1487 32.4505C30.8424 32.776 30.4403 32.9292 29.9617 32.9292H13.7269Z" fill="#431C19"/>
</svg>
