<svg width="62" height="60" viewBox="0 0 62 60" fill="none" xmlns="http://www.w3.org/2000/svg">
<path d="M4.63866 59.9759C3.07563 59.9759 1.89076 59.6141 1.13445 58.8666C0.378151 58.119 0 57.0096 0 55.5386V4.4373C0 2.96624 0.378151 1.8328 1.13445 1.10932C1.89076 0.361736 3.07563 0 4.63866 0H13.3866C14.9244 0 16.084 0.361736 16.8655 1.08521C17.6218 1.80868 18 2.91801 18 4.46141V55.5627C18 57.0579 17.6218 58.1672 16.8655 58.8907C16.1092 59.6383 14.9496 60 13.3866 60H4.63866V59.9759Z" fill="#431C19"/>
<path d="M57.3866 3.64148C57.7647 3.64148 57.9916 3.66559 58.1429 3.71383C58.1681 3.85852 58.2185 4.09968 58.2185 4.48553V55.5868C58.2185 55.9968 58.1681 56.2379 58.1429 56.3344C58.0168 56.3585 57.7899 56.4068 57.3866 56.4068H48.6387C48.2353 56.4068 47.9832 56.3585 47.8571 56.3344C47.8319 56.2138 47.7815 55.9727 47.7815 55.5868V4.46141C47.7815 4.05145 47.8319 3.81029 47.8571 3.71383C47.9832 3.68971 48.2353 3.64148 48.6639 3.64148H57.4118M57.3866 0.0241157H48.6387C47.0756 0.0241157 45.8908 0.385852 45.1345 1.13344C44.3781 1.88103 44 2.99035 44 4.46141V55.5627C44 57.0579 44.3781 58.1672 45.1345 58.8907C45.8908 59.6383 47.0756 60 48.6387 60H57.3866C58.9244 60 60.084 59.6383 60.8655 58.8907C61.6218 58.1431 62 57.0338 62 55.5627V4.46141C62 2.94212 61.6218 1.80868 60.8655 1.08521C60.1092 0.361736 58.9496 0 57.3866 0V0.0241157Z" fill="#431C19"/>
<path d="M35.3866 3.64148C35.7647 3.64148 35.9916 3.66559 36.1429 3.71383C36.1681 3.85852 36.2185 4.09968 36.2185 4.48553V55.5868C36.2185 55.9968 36.1681 56.2379 36.1429 56.3344C36.0168 56.3585 35.7899 56.4068 35.3866 56.4068H26.6387C26.2353 56.4068 25.9832 56.3585 25.8571 56.3344C25.8319 56.2138 25.7815 55.9727 25.7815 55.5868V4.46141C25.7815 4.05145 25.8319 3.81029 25.8571 3.71383C25.9832 3.68971 26.2353 3.64148 26.6639 3.64148H35.4118M35.3866 0.0241157H26.6387C25.0756 0.0241157 23.8908 0.385852 23.1345 1.13344C22.3781 1.88103 22 2.99035 22 4.46141V55.5627C22 57.0579 22.3781 58.1672 23.1345 58.8907C23.8908 59.6383 25.0756 60 26.6387 60H35.3866C36.9244 60 38.084 59.6383 38.8655 58.8907C39.6218 58.1431 40 57.0338 40 55.5627V4.46141C40 2.94212 39.6218 1.80868 38.8655 1.08521C38.1092 0.361736 36.9496 0 35.3866 0V0.0241157Z" fill="#431C19"/>
</svg>
